<svg width="1200" height="630" viewBox="0 0 1200 630" fill="none" xmlns="http://www.w3.org/2000/svg">
  <rect width="1200" height="630" fill="#05070A"/>
  <rect width="1200" height="630" fill="url(#bg)"/>
  <path d="M86 108H1114M86 194H1114M86 280H1114M86 366H1114M86 452H1114M86 538H1114" stroke="#6EA8FF" stroke-opacity="0.07"/>
  <path d="M180 64V566M336 64V566M492 64V566M648 64V566M804 64V566M960 64V566" stroke="#6EA8FF" stroke-opacity="0.05"/>

  <rect x="70" y="58" width="1060" height="514" rx="34" fill="#070C13" fill-opacity="0.92" stroke="url(#frame)" stroke-width="1.5"/>
  <rect x="100" y="88" width="1000" height="454" rx="26" fill="#0B121C" fill-opacity="0.9" stroke="#22344A"/>

  <g transform="translate(126 116)">
    <rect x="0" y="0" width="160" height="34" rx="17" fill="#0C2A1C" stroke="#41F1A0" stroke-opacity="0.5"/>
    <circle cx="18" cy="17" r="5" fill="#41F1A0"/>
    <text x="34" y="22" fill="#8CFFC6" font-family="Inter, Segoe UI, Arial, sans-serif" font-size="13" font-weight="800" letter-spacing="1.3">PHASE 5 LIVE</text>
  </g>

  <text x="126" y="224" fill="#F8FBFF" font-family="Inter, Segoe UI, Arial, sans-serif" font-size="70" font-weight="850">Kyra Agent</text>
  <text x="130" y="284" fill="#8EB8FF" font-family="Inter, Segoe UI, Arial, sans-serif" font-size="30" font-weight="750">Telegram-native AI agents for Base</text>
  <text x="130" y="334" fill="#B9C7D9" font-family="Inter, Segoe UI, Arial, sans-serif" font-size="25">Read-only Telegram commands. LLM planning.</text>
  <text x="130" y="370" fill="#B9C7D9" font-family="Inter, Segoe UI, Arial, sans-serif" font-size="25">Wallet and onchain execution stay gated.</text>

  <g transform="translate(130 418)">
    <rect x="0" y="0" width="128" height="38" rx="19" fill="#071B31" stroke="#2F7CFF"/>
    <text x="21" y="25" fill="#8EB8FF" font-family="Inter, Segoe UI, Arial, sans-serif" font-size="14" font-weight="800">TELEGRAM</text>
    <rect x="150" y="0" width="148" height="38" rx="19" fill="#151425" stroke="#A78BFA"/>
    <text x="173" y="25" fill="#D8C7FF" font-family="Inter, Segoe UI, Arial, sans-serif" font-size="14" font-weight="800">AGENT BRAIN</text>
    <rect x="320" y="0" width="162" height="38" rx="19" fill="#0D2418" stroke="#41F1A0"/>
    <text x="342" y="25" fill="#8CFFC6" font-family="Inter, Segoe UI, Arial, sans-serif" font-size="14" font-weight="800">APPROVAL FIRST</text>
  </g>

  <text x="130" y="510" fill="#7DD3FC" font-family="Consolas, ui-monospace, monospace" font-size="20" font-weight="700">No custody. No seed phrases. No hidden execution.</text>

  <g transform="translate(690 112)">
    <rect x="0" y="0" width="374" height="404" rx="28" fill="#0D1520" stroke="#2C4158"/>
    <rect x="24" y="24" width="326" height="66" rx="18" fill="#101C2A" stroke="#314963"/>
    <rect x="42" y="42" width="30" height="30" rx="8" fill="#2F7CFF"/>
    <text x="51" y="64" fill="#FFFFFF" font-family="Inter, Segoe UI, Arial, sans-serif" font-size="17" font-weight="900">K</text>
    <text x="88" y="54" fill="#F8FBFF" font-family="Inter, Segoe UI, Arial, sans-serif" font-size="17" font-weight="850">Telegram Agent Runtime</text>
    <text x="88" y="75" fill="#9FB0C4" font-family="Inter, Segoe UI, Arial, sans-serif" font-size="13">read-only production layer</text>

    <rect x="24" y="118" width="326" height="58" rx="16" fill="#0A1B2D" stroke="#2F7CFF" stroke-opacity="0.8"/>
    <rect x="24" y="118" width="5" height="58" rx="2.5" fill="#2F7CFF"/>
    <text x="48" y="143" fill="#F8FBFF" font-family="Inter, Segoe UI, Arial, sans-serif" font-size="16" font-weight="800">Commands online</text>
    <text x="48" y="164" fill="#B9C7D9" font-family="Consolas, ui-monospace, monospace" font-size="13">/agent  /actions  /modules</text>

    <rect x="24" y="196" width="326" height="58" rx="16" fill="#101827" stroke="#32465F"/>
    <rect x="24" y="196" width="5" height="58" rx="2.5" fill="#A78BFA"/>
    <text x="48" y="221" fill="#F8FBFF" font-family="Inter, Segoe UI, Arial, sans-serif" font-size="16" font-weight="800">Agent brain enabled</text>
    <text x="48" y="242" fill="#B9C7D9" font-family="Inter, Segoe UI, Arial, sans-serif" font-size="13">campaign plans, launch copy, risk review</text>

    <rect x="24" y="274" width="326" height="58" rx="16" fill="#172018" stroke="#41F1A0" stroke-opacity="0.55"/>
    <rect x="24" y="274" width="5" height="58" rx="2.5" fill="#41F1A0"/>
    <text x="48" y="299" fill="#F8FBFF" font-family="Inter, Segoe UI, Arial, sans-serif" font-size="16" font-weight="800">Execution boundary</text>
    <text x="48" y="320" fill="#B9C7D9" font-family="Inter, Segoe UI, Arial, sans-serif" font-size="13">wallet + Base MCP gated for Phase 6</text>

    <rect x="24" y="356" width="326" height="24" rx="12" fill="#21141A" stroke="#F97373" stroke-opacity="0.65"/>
    <text x="82" y="373" fill="#FFC0C0" font-family="Inter, Segoe UI, Arial, sans-serif" font-size="12" font-weight="850" letter-spacing="1.1">NO SWAPS  NO SIGNING  NO CONTRACT CALLS</text>
  </g>

  <defs>
    <linearGradient id="bg" x1="68" y1="34" x2="1120" y2="604" gradientUnits="userSpaceOnUse">
      <stop stop-color="#0B1020"/>
      <stop offset="0.44" stop-color="#071B31"/>
      <stop offset="0.78" stop-color="#0B111A"/>
      <stop offset="1" stop-color="#05070A"/>
    </linearGradient>
    <linearGradient id="frame" x1="70" y1="58" x2="1130" y2="572" gradientUnits="userSpaceOnUse">
      <stop stop-color="#41F1A0"/>
      <stop offset="0.46" stop-color="#2F7CFF"/>
      <stop offset="0.78" stop-color="#A78BFA"/>
      <stop offset="1" stop-color="#26384E"/>
    </linearGradient>
  </defs>
</svg>
